<?xml version="1.0" encoding="UTF-8" standalone="no"?>
<!-- Created with Inkscape (http://www.inkscape.org/) -->

<svg
   width="40"
   height="32"
   viewBox="-2 3 40 32"
   version="1.1"
   id="SVGRoot"
   sodipodi:docname="ori-logo.svg"
   inkscape:version="1.2.2 (732a01da63, 2022-12-09)"
   xmlns:inkscape="http://www.inkscape.org/namespaces/inkscape"
   xmlns:sodipodi="http://sodipodi.sourceforge.net/DTD/sodipodi-0.dtd"
   xmlns="http://www.w3.org/2000/svg"
   xmlns:svg="http://www.w3.org/2000/svg">
  <sodipodi:namedview
     id="namedview14"
     pagecolor="#505050"
     bordercolor="#ffffff"
     borderopacity="1"
     inkscape:showpageshadow="true"
     inkscape:pageopacity="0"
     inkscape:pagecheckerboard="1"
     inkscape:deskcolor="#505050"
     inkscape:document-units="px"
     showgrid="true"
     inkscape:zoom="45.254834"
     inkscape:cx="-3.2593203"
     inkscape:cy="14.318912"
     inkscape:window-width="5120"
     inkscape:window-height="1360"
     inkscape:window-x="2293"
     inkscape:window-y="-11"
     inkscape:window-maximized="1"
     inkscape:current-layer="layer1"
     showguides="true">
    <inkscape:grid
       type="xygrid"
       id="grid20"
       originx="0"
       originy="0" />
  </sodipodi:namedview>
  <defs
     id="defs9" />
  <g
     inkscape:label="Layer 1"
     inkscape:groupmode="layer"
     id="layer1">
    <path
       id="rect1574"
       style="fill:#000000;opacity:1"
       d="m 31.947266,14.488281 a 15.999022,15.976924 0 0 1 0,0.002 15.999022,15.976924 0 0 1 0,0.002 l 0.002,0.002 c 6.96e-4,0.0014 0.0013,0.0025 0.002,0.0039 0.0032,6e-5 0.0066,-1.91e-4 0.0098,0 -0.0014,-0.0012 -0.0025,-0.0028 -0.0039,-0.0039 -0.0022,-0.0017 -0.0073,-0.0032 -0.0078,-0.0059 z M 0.06640625,15.041016 c -8.4303e-4,0.0011 -0.0012581,0.0031 -0.0019531,0.0039 -0.0047405,0.0046 -0.0068993,0.0027 -0.0078125,0.0078 -0.0027999,0.0021 -0.0037601,0.0034 -0.0039063,0.0039 -1.4968e-4,7.04e-4 -9.6379e-4,0.0034 -0.0019531,0.0059 v 0.002 A 15.999022,15.976924 0 0 0 0.01757813,15.541016 15.999022,15.976924 0 0 0 0.0546875,16.0625 H 32.001953 a 15.999022,15.976924 0 0 0 0.01367,-0.521484 15.999022,15.976924 0 0 0 -0.01172,-0.5 z M 0.0546875,16.0625 h -0.015625 c 0.0015678,3.03e-4 0.0030514,0.0016 0.0058594,0.002 0.0036072,0.0015 0.0070199,0.0028 0.0097656,0.0039 a 15.999022,15.976924 0 0 1 0,-0.0059 z m 31.9472655,0.04297 A 15.999022,15.976924 0 0 1 32,16.128906 c 0.0034,-0.0036 0.0065,-0.0064 0.0098,-0.0098 l -0.002,-0.002 c -0.0031,-0.0036 -0.0042,-0.0074 -0.0059,-0.01172 z m 0.02148,0.02344 c -0.0029,0.005 -0.0042,0.01112 -0.0039,0.01367 1.66e-4,0.0014 0.0016,0.0026 0.002,0.0039 z m -31.96484425,0.0039 c -0.001162,5.85e-4 -0.0026139,0.0016 -0.0039063,0.002 0.0013734,7.48e-4 0.0031576,-0.001 0.0039063,0.002 a 15.999022,15.976924 0 0 1 0,-0.0039 z M 31.998047,16.271484 a 15.999022,15.976924 0 0 1 0,0.002 15.999022,15.976924 0 0 1 0,0.002 15.999022,15.976924 0 0 1 0,0.002 15.999022,15.976924 0 0 1 0,0.002 15.999022,15.976924 0 0 1 0,0.002 h 0.01367 c -0.0013,-7.03e-4 -0.0024,-0.0011 -0.0039,-0.002 -0.0025,-0.0013 -0.004,-0.0038 -0.0059,-0.0059 -4.38e-4,-0.0013 -0.0028,-0.0011 -0.0039,-0.002 z m 0,0.0098 H 0.16796875 c -0.001706,0.0079 -0.003693,0.01238 -0.009766,0 H 0.08789062 0.0859375 c -0.0036836,0.0035 -0.0077728,0.0069 -0.01367188,0.0098 a 15.999022,15.976924 0 0 0 0.1796875,1.591796 H 31.810547 c 0.0035,-0.0032 0.0062,-0.0067 0.0098,-0.0098 A 15.999022,15.976924 0 0 0 31.998047,16.28125 Z M 0.25195312,17.882812 h -0.015625 c 0.006864,0.0016 0.0116587,0.0044 0.015625,0.0078 a 15.999022,15.976924 0 0 1 0,-0.0078 z m 31.93945288,0 c 0.0011,0.0056 0.0023,0.01008 0.0039,0.01563 7.57e-4,-0.0051 0.0029,-0.01018 0.0039,-0.01563 z m -0.324218,0.02148 c -0.0011,9.23e-4 -0.0029,-0.001 -0.0039,0.002 -7.83e-4,0.0039 -0.0012,0.0079 -0.002,0.01172 0.0015,-8.8e-5 0.002,3e-4 0.0039,0 3.66e-4,-0.0044 0.0018,-0.0092 0.002,-0.01367 z m -0.0039,0.0332 v 0.002 h 0.002 v -0.002 z m 0.113281,0.05273 c 0.0014,0.0011 0.0029,0.0026 0.0039,0.0039 7.94e-4,-0.0013 0.0012,-0.0026 0.002,-0.0039 z m -0.183593,0.117188 a 15.999022,15.976924 0 0 1 0,0.002 15.999022,15.976924 0 0 1 0,0.002 15.999022,15.976924 0 0 1 0,0.002 15.999022,15.976924 0 0 1 0,0.002 h 0.01367 c -0.0031,-0.002 -0.0059,-0.0033 -0.0098,-0.0059 -0.0011,-7.24e-4 -0.0029,-0.0012 -0.0039,-0.002 z m 0,0.0078 H 0.27734375 A 15.999022,15.976924 0 0 0 12.033203,30.984375 h -0.0293 v 1.017578 h 8 V 30.992188 A 15.999022,15.976924 0 0 0 31.792969,18.115234 Z m -31.51562525,0 a 15.999022,15.976924 0 0 1 0,-0.0059 c -0.0115588,0.0023 -0.0228373,0.0045 -0.0351563,0.0059 z" />
    <path
       id="rect1951"
       style="display:inline;fill:#000000;stroke:#000000;stroke-width:1.00352;stroke-linecap:round;stroke-linejoin:bevel;stroke-dasharray:none;stroke-opacity:1;paint-order:fill markers stroke"
       transform="matrix(-0.55203646,0.83381997,-0.89317999,-0.44969935,0,0)"
       d="m -6.1103227,-32.42007 6.88976132,-0.302509 -0.28064168,0.01819 -7.35338624,0.02051 z"
       sodipodi:nodetypes="ccccc" />
    <path
       id="rect1953"
       style="display:inline;opacity:1;fill:#000000;stroke:#000000;stroke-width:1.07587;stroke-linecap:round;stroke-linejoin:bevel;stroke-dasharray:none;stroke-opacity:1"
       transform="matrix(0.90208557,-0.43155722,0.82713432,0.56200429,0,0)"
       d="m 11.430661,30.946327 -6.872954,0.08122 0.2559113,0.0019 6.6166327,-2.4e-5 z"
       sodipodi:nodetypes="ccccc" />
  </g>
</svg>
